<svg width="64" height="64" viewBox="0 0 64 64" fill="none" xmlns="http://www.w3.org/2000/svg">
<g clip-path="url(#clip0_4_20)">
<path d="M29.9167 28.2708C29.9167 28.654 29.803 29.0286 29.5901 29.3473C29.3773 29.6659 29.0747 29.9142 28.7206 30.0609C28.3666 30.2075 27.977 30.2459 27.6012 30.1711C27.2253 30.0963 26.8801 29.9118 26.6092 29.6409C26.3382 29.3699 26.1537 29.0247 26.0789 28.6488C26.0041 28.273 26.0425 27.8834 26.1892 27.5294C26.3358 27.1754 26.5841 26.8728 26.9028 26.6599C27.2214 26.447 27.596 26.3333 27.9792 26.3333C28.493 26.3333 28.9858 26.5375 29.3492 26.9008C29.7125 27.2642 29.9167 27.757 29.9167 28.2708ZM37.0208 26.3333C36.6376 26.3333 36.263 26.447 35.9444 26.6599C35.6258 26.8728 35.3775 27.1754 35.2308 27.5294C35.0842 27.8834 35.0458 28.273 35.1206 28.6488C35.1953 29.0247 35.3799 29.3699 35.6508 29.6409C35.9218 29.9118 36.267 30.0963 36.6429 30.1711C37.0187 30.2459 37.4083 30.2075 37.7623 30.0609C38.1163 29.9142 38.4189 29.6659 38.6318 29.3473C38.8447 29.0286 38.9583 28.654 38.9583 28.2708C38.9583 27.757 38.7542 27.2642 38.3909 26.9008C38.0275 26.5375 37.5347 26.3333 37.0208 26.3333ZM48 31.5C48 34.5656 47.0909 37.5624 45.3878 40.1113C43.6846 42.6603 41.2639 44.647 38.4316 45.8201C35.5993 46.9933 32.4828 47.3002 29.4761 46.7022C26.4694 46.1041 23.7076 44.6279 21.5399 42.4602C19.3721 40.2924 17.8959 37.5306 17.2978 34.5239C16.6998 31.5172 17.0067 28.4007 18.1799 25.5684C19.353 22.7362 21.3397 20.3154 23.8887 18.6122C26.4376 16.9091 29.4344 16 32.5 16C36.6095 16.0044 40.5494 17.6389 43.4553 20.5448C46.3611 23.4506 47.9956 27.3905 48 31.5ZM45.4167 31.5C45.4167 28.9453 44.6591 26.448 43.2398 24.3239C41.8205 22.1998 39.8032 20.5442 37.443 19.5666C35.0828 18.5889 32.4857 18.3331 29.9801 18.8315C27.4745 19.3299 25.173 20.5601 23.3665 22.3665C21.5601 24.173 20.3299 26.4745 19.8315 28.9801C19.3331 31.4857 19.5889 34.0828 20.5666 36.443C21.5442 38.8032 23.1998 40.8205 25.3239 42.2398C27.448 43.6591 29.9453 44.4167 32.5 44.4167C35.9246 44.4129 39.2078 43.0508 41.6293 40.6293C44.0508 38.2078 45.4129 34.9246 45.4167 31.5Z" fill="#30CE65"/>
</g>
<rect width="64" height="64" rx="13" fill="#4CC665" fill-opacity="0.15"/>
<defs>
<clipPath id="clip0_4_20">
<rect width="31" height="31" fill="white" transform="translate(17 16)"/>
</clipPath>
</defs>
</svg>
