<svg width="64" height="64" viewBox="0 0 64 64" fill="none" xmlns="http://www.w3.org/2000/svg">
<path d="M28.625 44.4167C28.3034 44.4167 27.9818 44.2965 27.7312 44.0576L18.5332 35.2381C16.4988 33.205 16.4988 29.9267 18.5138 27.9117L27.7247 18.9489C28.2362 18.4516 29.0538 18.4619 29.5511 18.9747C30.0484 19.4862 30.0368 20.3038 29.5253 20.8011L20.3273 29.7511C19.3328 30.7457 19.3328 32.3861 20.3403 33.3923L29.5188 42.1924C30.0342 42.6858 30.051 43.5047 29.5576 44.0188C29.3044 44.2823 28.9647 44.4167 28.625 44.4167ZM37.2766 44.0498L46.4629 35.0857C48.4766 33.0707 48.4766 29.7924 46.4448 27.7606L37.2701 18.9437C36.7561 18.4503 35.9384 18.4671 35.4437 18.9799C34.9503 19.494 34.9658 20.3116 35.4799 20.8063L44.6365 29.6038C45.6427 30.6113 45.6427 32.2505 44.6481 33.2463L35.4721 42.2002C34.9606 42.6987 34.9516 43.5164 35.4489 44.0266C35.7021 44.2862 36.0379 44.4167 36.3737 44.4167C36.6992 44.4167 37.0247 44.294 37.2753 44.0498H37.2766Z" fill="#8C76F7"/>
<rect width="64" height="64" rx="13" fill="#807CF8" fill-opacity="0.15"/>
</svg>
