<svg width="64" height="64" viewBox="0 0 64 64" fill="none" xmlns="http://www.w3.org/2000/svg">
<g clip-path="url(#clip0_4_20)">
<path d="M34.4374 31.5001C34.4374 32.5696 33.5694 33.4376 32.4999 33.4376C31.4304 33.4376 30.5624 32.5696 30.5624 31.5001C30.5624 30.4306 31.4304 29.5626 32.4999 29.5626C33.5694 29.5626 34.4374 30.4306 34.4374 31.5001ZM38.9582 29.5626C37.8887 29.5626 37.0207 30.4306 37.0207 31.5001C37.0207 32.5696 37.8887 33.4376 38.9582 33.4376C40.0277 33.4376 40.8957 32.5696 40.8957 31.5001C40.8957 30.4306 40.0277 29.5626 38.9582 29.5626ZM26.0415 29.5626C24.972 29.5626 24.104 30.4306 24.104 31.5001C24.104 32.5696 24.972 33.4376 26.0415 33.4376C27.111 33.4376 27.979 32.5696 27.979 31.5001C27.979 30.4306 27.111 29.5626 26.0415 29.5626ZM47.9999 31.9392V40.5417C47.9999 44.1029 45.1026 47.0001 41.5415 47.0001H33.8987C24.8558 47.0001 17.6069 40.8104 17.0386 32.6032C16.7273 28.1133 18.3651 23.7191 21.5323 20.548C24.6995 17.377 29.0937 15.734 33.5797 16.0375C41.6655 16.5865 47.9999 23.5705 47.9999 31.9392ZM45.4165 31.9392C45.4165 24.9242 40.1414 19.0717 33.4053 18.6144C33.1095 18.5937 32.8137 18.5847 32.5192 18.5847C29.0886 18.5847 25.7909 19.9384 23.36 22.3732C20.7199 25.0159 19.3546 28.6804 19.6155 32.4249C20.0973 39.3741 26.1048 44.418 33.9 44.418H41.5428C43.6792 44.418 45.4178 42.6795 45.4178 40.543V31.9405L45.4165 31.9392Z" fill="#FF9E4C"/>
</g>
<rect width="64" height="64" rx="13" fill="#EC9966" fill-opacity="0.15"/>
<defs>
<clipPath id="clip0_4_20">
<rect width="31" height="31" fill="white" transform="translate(17 16)"/>
</clipPath>
</defs>
</svg>
