<svg width="64" height="64" viewBox="0 0 64 64" fill="none" xmlns="http://www.w3.org/2000/svg">
<g clip-path="url(#clip0_4_20)">
<path d="M37.6667 23.75C38.0093 23.75 38.3378 23.8861 38.5801 24.1283C38.8223 24.3706 38.9584 24.6991 38.9584 25.0417C38.9584 25.3842 38.8223 25.7128 38.5801 25.955C38.3378 26.1972 38.0093 26.3333 37.6667 26.3333H27.3334C26.9908 26.3333 26.6623 26.1972 26.42 25.955C26.1778 25.7128 26.0417 25.3842 26.0417 25.0417C26.0417 24.6991 26.1778 24.3706 26.42 24.1283C26.6623 23.8861 26.9908 23.75 27.3334 23.75H37.6667ZM47.6216 46.6215C47.3794 46.8637 47.0509 46.9997 46.7084 46.9997C46.3659 46.9997 46.0374 46.8637 45.7952 46.6215L42.6861 43.5125C41.7654 44.1002 40.6965 44.4137 39.6042 44.4167C38.4546 44.4167 37.3308 44.0758 36.375 43.4371C35.4191 42.7984 34.6741 41.8906 34.2342 40.8285C33.7942 39.7664 33.6791 38.5977 33.9034 37.4702C34.1277 36.3427 34.6813 35.307 35.4942 34.4941C36.307 33.6812 37.3427 33.1276 38.4702 32.9034C39.5978 32.6791 40.7665 32.7942 41.8286 33.2341C42.8907 33.6741 43.7984 34.4191 44.4371 35.3749C45.0758 36.3308 45.4167 37.4546 45.4167 38.6042C45.4138 39.6964 45.1002 40.7654 44.5125 41.6861L47.6216 44.7951C47.8637 45.0373 47.9998 45.3658 47.9998 45.7083C47.9998 46.0508 47.8637 46.3793 47.6216 46.6215ZM39.6042 41.8333C40.2429 41.8333 40.8672 41.6439 41.3982 41.2891C41.9293 40.9343 42.3432 40.43 42.5876 39.8399C42.832 39.2499 42.8959 38.6006 42.7713 37.9742C42.6467 37.3478 42.3392 36.7724 41.8876 36.3208C41.436 35.8692 40.8606 35.5616 40.2342 35.437C39.6078 35.3124 38.9585 35.3764 38.3685 35.6208C37.7784 35.8652 37.2741 36.2791 36.9193 36.8101C36.5644 37.3412 36.375 37.9655 36.375 38.6042C36.375 39.4606 36.7153 40.2819 37.3208 40.8875C37.9264 41.4931 38.7478 41.8333 39.6042 41.8333ZM33.7917 44.4167H26.0417C25.014 44.4167 24.0284 44.0084 23.3017 43.2817C22.575 42.555 22.1667 41.5694 22.1667 40.5417V22.4583C22.1667 21.4306 22.575 20.445 23.3017 19.7183C24.0284 18.9916 25.014 18.5833 26.0417 18.5833H41.5417C41.8843 18.5833 42.2128 18.7194 42.4551 18.9617C42.6973 19.2039 42.8334 19.5324 42.8334 19.875V30.2083C42.8334 30.5509 42.9695 30.8794 43.2117 31.1217C43.4539 31.3639 43.7825 31.5 44.125 31.5C44.4676 31.5 44.7962 31.3639 45.0384 31.1217C45.2806 30.8794 45.4167 30.5509 45.4167 30.2083V19.875C45.4167 18.8473 45.0085 17.8617 44.2817 17.135C43.555 16.4083 42.5694 16 41.5417 16H26.0417C24.3295 16.0021 22.688 16.6831 21.4772 17.8939C20.2665 19.1046 19.5854 20.7461 19.5834 22.4583V40.5417C19.5854 42.2539 20.2665 43.8954 21.4772 45.1061C22.688 46.3169 24.3295 46.9979 26.0417 47H33.7917C34.1343 47 34.4628 46.8639 34.7051 46.6217C34.9473 46.3794 35.0834 46.0509 35.0834 45.7083C35.0834 45.3658 34.9473 45.0372 34.7051 44.795C34.4628 44.5528 34.1343 44.4167 33.7917 44.4167Z" fill="#00CDF6"/>
</g>
<rect width="64" height="64" rx="13" fill="#0BCCE0" fill-opacity="0.15"/>
<defs>
<clipPath id="clip0_4_20">
<rect width="31" height="31" fill="white" transform="translate(17 16)"/>
</clipPath>
</defs>
</svg>
