<svg width="64" height="64" viewBox="0 0 64 64" fill="none" xmlns="http://www.w3.org/2000/svg">
<rect width="64" height="64" rx="13" fill="#3D9EFF" fill-opacity="0.15"/>
<g clip-path="url(#clip0_4_20)">
<path d="M42.7675 23.1507L38.2673 18.6479C37.4295 17.8059 36.433 17.1384 35.3355 16.6839C34.2381 16.2294 33.0614 15.9969 31.8736 16H26.0417C24.3295 16.0021 22.688 16.6831 21.4772 17.8939C20.2665 19.1046 19.5854 20.7461 19.5834 22.4583V40.5417C19.5854 42.2539 20.2665 43.8954 21.4772 45.1061C22.688 46.3169 24.3295 46.9979 26.0417 47H38.9584C40.6706 46.9979 42.3121 46.3169 43.5228 45.1061C44.7336 43.8954 45.4147 42.2539 45.4167 40.5417V29.5431C45.4199 28.3553 45.1874 27.1787 44.7327 26.0814C44.2779 24.9841 43.61 23.988 42.7675 23.1507ZM40.9411 24.9771C41.3355 25.3829 41.6747 25.8389 41.9499 26.3333H36.375C36.0325 26.3333 35.7039 26.1972 35.4617 25.955C35.2195 25.7128 35.0834 25.3842 35.0834 25.0417V19.4668C35.578 19.7419 36.0344 20.0806 36.4409 20.4743L40.9411 24.9771ZM42.8334 40.5417C42.8334 41.5694 42.4251 42.555 41.6984 43.2817C40.9717 44.0084 39.9861 44.4167 38.9584 44.4167H26.0417C25.014 44.4167 24.0284 44.0084 23.3017 43.2817C22.575 42.555 22.1667 41.5694 22.1667 40.5417V22.4583C22.1667 21.4306 22.575 20.445 23.3017 19.7183C24.0284 18.9916 25.014 18.5833 26.0417 18.5833H31.8736C32.0854 18.5833 32.2908 18.6247 32.5 18.644V25.0417C32.5 26.0694 32.9083 27.055 33.635 27.7817C34.3617 28.5084 35.3473 28.9167 36.375 28.9167H42.7727C42.792 29.1259 42.8334 29.33 42.8334 29.5431V40.5417Z" fill="#3D9EFF"/>
</g>
<defs>
<clipPath id="clip0_4_20">
<rect width="31" height="31" fill="white" transform="translate(17 16)"/>
</clipPath>
</defs>
</svg>
