<svg width="64" height="64" viewBox="0 0 64 64" fill="none" xmlns="http://www.w3.org/2000/svg">
<g clip-path="url(#clip0_4_20)">
<path d="M32.5 28.9167C31.4782 28.9167 30.4793 29.2197 29.6296 29.7874C28.7799 30.3551 28.1177 31.162 27.7267 32.1061C27.3356 33.0502 27.2333 34.0891 27.4327 35.0913C27.632 36.0935 28.1241 37.0141 28.8467 37.7367C29.5692 38.4593 30.4898 38.9514 31.4921 39.1507C32.4943 39.3501 33.5332 39.2478 34.4772 38.8567C35.4213 38.4657 36.2282 37.8034 36.796 36.9538C37.3637 36.1041 37.6667 35.1052 37.6667 34.0833C37.6667 32.713 37.1224 31.3989 36.1534 30.4299C35.1845 29.461 33.8703 28.9167 32.5 28.9167ZM32.5 36.6667C31.9891 36.6667 31.4896 36.5152 31.0648 36.2313C30.64 35.9474 30.3089 35.544 30.1134 35.0719C29.9178 34.5999 29.8667 34.0805 29.9663 33.5793C30.066 33.0782 30.3121 32.6179 30.6734 32.2566C31.0346 31.8954 31.4949 31.6493 31.9961 31.5496C32.4972 31.45 33.0166 31.5011 33.4886 31.6966C33.9607 31.8922 34.3641 32.2233 34.648 32.6481C34.9319 33.0729 35.0834 33.5724 35.0834 34.0833C35.0834 34.7685 34.8112 35.4256 34.3267 35.91C33.8423 36.3945 33.1852 36.6667 32.5 36.6667Z" fill="#FF1031"/>
<path d="M46.109 21.3243L42.6757 17.891C42.0775 17.2896 41.3659 16.8127 40.5822 16.4881C39.7984 16.1635 38.958 15.9976 38.1097 16H23.4583C21.7461 16.0021 20.1046 16.6832 18.8939 17.8939C17.6831 19.1046 17.0021 20.7461 17 22.4584L17 40.5417C17.0021 42.2539 17.6831 43.8954 18.8939 45.1062C20.1046 46.3169 21.7461 46.998 23.4583 47H41.5417C43.2539 46.998 44.8954 46.3169 46.1061 45.1062C47.3169 43.8954 47.9979 42.2539 48 40.5417V25.8903C48.0024 25.042 47.8365 24.2016 47.5119 23.4179C47.1873 22.6341 46.7105 21.9225 46.109 21.3243ZM38.9583 18.6867V19.875C38.9583 20.9027 38.5501 21.8884 37.8234 22.6151C37.0967 23.3418 36.111 23.75 35.0833 23.75H29.9167C28.889 23.75 27.9033 23.3418 27.1766 22.6151C26.4499 21.8884 26.0417 20.9027 26.0417 19.875V18.5834H38.1097C38.3956 18.5859 38.6802 18.6206 38.9583 18.6867ZM45.4167 40.5417C45.4167 41.5694 45.0084 42.555 44.2817 43.2817C43.555 44.0084 42.5694 44.4167 41.5417 44.4167H23.4583C22.4306 44.4167 21.445 44.0084 20.7183 43.2817C19.9916 42.555 19.5833 41.5694 19.5833 40.5417V22.4584C19.5833 21.4306 19.9916 20.445 20.7183 19.7183C21.445 18.9916 22.4306 18.5834 23.4583 18.5834V19.875C23.4604 21.5873 24.1415 23.2288 25.3522 24.4395C26.5629 25.6502 28.2044 26.3313 29.9167 26.3334H35.0833C36.7076 26.3283 38.2701 25.7103 39.4584 24.603C40.6467 23.4957 41.3732 21.9806 41.4926 20.3607L44.2826 23.1507C45.0065 23.879 45.414 24.8634 45.4167 25.8903V40.5417Z" fill="#FF1031"/>
</g>
<rect width="64" height="64" rx="13" fill="#DB2D4C" fill-opacity="0.15"/>
<defs>
<clipPath id="clip0_4_20">
<rect width="31" height="31" fill="white" transform="translate(17 16)"/>
</clipPath>
</defs>
</svg>
